<svg width="0" height="0" class="hidden">
  <symbol fill="none" xmlns="http://www.w3.org/2000/svg" viewBox="0 0 17 16" id="arrow-line">
    <path d="M11.2811 7.33327L7.70509 3.75726L8.64789 2.81445L13.8334 7.99993L8.64789 13.1853L7.70509 12.2425L11.2811 8.6666H3.16669V7.33327H11.2811Z" fill="currentColor"></path>
  </symbol>
  <symbol fill="none" xmlns="http://www.w3.org/2000/svg" viewBox="0 0 24 25" id="arrow-nonline">
    <path d="M10.8284 12.1091L15.7782 17.0588L14.364 18.473L8 12.1091L14.364 5.74512L15.7782 7.15933L10.8284 12.1091Z" fill="#3F3F46"></path>
  </symbol>
  <symbol fill="none" xmlns="http://www.w3.org/2000/svg" viewBox="0 0 24 24" id="menu-line">
    <path d="M3 4H21V6H3V4ZM3 11H21V13H3V11ZM3 18H21V20H3V18Z" fill="#3F3F46"></path>
  </symbol>
  <symbol fill="none" xmlns="http://www.w3.org/2000/svg" viewBox="0 0 16 17" id="add-line">
    <path d="M7.33334 8.78223H7.83334V8.28223V4.78223H8.16668V8.28223V8.78223H8.66668H12.1667V9.11556H8.66668H8.16668V9.61556V13.1156H7.83334V9.61556V9.11556H7.33334H3.83334V8.78223H7.33334Z" fill="#3F3F46" stroke="#334155"></path>
  </symbol>
  <symbol fill="none" xmlns="http://www.w3.org/2000/svg" viewBox="0 0 24 24" id="discount">
    <path d="M10.0544 2.0941C11.1756 1.13856 12.8248 1.13855 13.9461 2.09411L15.2941 3.24286C15.4542 3.37935 15.6533 3.46182 15.8631 3.47856L17.6286 3.61945C19.0971 3.73663 20.2633 4.9028 20.3805 6.37131L20.5214 8.13679C20.5381 8.34654 20.6205 8.54568 20.757 8.70585L21.9058 10.0539C22.8614 11.1751 22.8614 12.8243 21.9058 13.9456L20.757 15.2935C20.6206 15.4537 20.538 15.6529 20.5213 15.8627L20.3805 17.6281C20.2633 19.0967 19.0971 20.2628 17.6286 20.3799L15.8631 20.5208C15.6533 20.5376 15.4542 20.6201 15.2941 20.7566L13.9461 21.9053C12.8248 22.8609 11.1756 22.8608 10.0543 21.9053L8.70631 20.7566C8.54615 20.6201 8.34705 20.5376 8.1373 20.5209L6.37184 20.3799C4.9033 20.2627 3.73716 19.0966 3.61997 17.6281L3.47906 15.8627C3.46232 15.6529 3.37983 15.4538 3.24336 15.2936L2.0946 13.9455C1.13905 12.8243 1.13904 11.1752 2.09458 10.0539L3.24334 8.70589C3.37983 8.54573 3.46234 8.34654 3.47907 8.13678L3.61996 6.3713C3.73714 4.90278 4.90327 3.73665 6.3718 3.61946L8.13729 3.47857C8.34705 3.46183 8.54619 3.37935 8.70636 3.24286L10.0544 2.0941ZM12.6488 3.61632C12.2751 3.29782 11.7253 3.29781 11.3516 3.61632L10.0036 4.76509C9.5231 5.17456 8.92568 5.42201 8.29637 5.47223L6.5309 5.61312C6.04139 5.65219 5.65268 6.04089 5.61362 6.53041L5.47272 8.29593C5.4225 8.92521 5.17505 9.52259 4.76559 10.0031L3.61683 11.3511C3.29832 11.7248 3.29831 12.2746 3.61683 12.6483L4.76559 13.9963C5.17506 14.4768 5.4225 15.0743 5.47275 15.7035L5.61363 17.469C5.65268 17.9585 6.04139 18.3473 6.53092 18.3863L8.29636 18.5272C8.92563 18.5774 9.5231 18.8249 10.0036 19.2344L11.3516 20.3831C11.7254 20.7016 12.2751 20.7016 12.6488 20.3831L13.9969 19.2343C14.4773 18.8249 15.0747 18.5774 15.704 18.5272L17.4695 18.3863C17.959 18.3472 18.3478 17.9585 18.3868 17.469L18.5277 15.7035C18.5779 15.0742 18.8253 14.4768 19.2349 13.9964L20.3836 12.6483C20.7022 12.2746 20.7021 11.7249 20.3836 11.3511L19.2348 10.0031C18.8253 9.52259 18.5779 8.92519 18.5277 8.2959L18.3868 6.53041C18.3478 6.0409 17.959 5.65219 17.4695 5.61312L15.704 5.47224C15.0748 5.42203 14.4773 5.17455 13.9968 4.76508L12.6488 3.61632ZM14.8284 7.75718L16.2426 9.1714L9.17154 16.2425L7.75733 14.8282L14.8284 7.75718ZM10.2322 10.232C9.64641 10.8178 8.69667 10.8178 8.11088 10.232C7.52509 9.6463 7.52509 8.69652 8.11088 8.11073C8.69667 7.52494 9.64641 7.52494 10.2322 8.11073C10.818 8.69652 10.818 9.6463 10.2322 10.232ZM13.7677 15.8889C14.3535 16.4747 15.3032 16.4747 15.889 15.8889C16.4748 15.3031 16.4748 14.3534 15.889 13.7676C15.3032 13.1818 14.3535 13.1818 13.7677 13.7676C13.1819 14.3534 13.1819 15.3031 13.7677 15.8889Z" fill="#3F3F46"></path>
  </symbol>
  <symbol fill="none" xmlns="http://www.w3.org/2000/svg" viewBox="0 0 24 24" id="house">
    <path d="M19 19V9.79875L12 4.27675L5 9.79875V19H19ZM21 20C21 20.5523 20.5523 21 20 21H4C3.44772 21 3 20.5523 3 20V9.31391C3 9.00773 3.14027 8.71843 3.38065 8.52879L11.3807 2.21793C11.7438 1.93142 12.2562 1.93142 12.6193 2.21793L20.6193 8.52879C20.8597 8.71843 21 9.00773 21 9.31391V20ZM7 12H9C9 13.6569 10.3431 15 12 15C13.6569 15 15 13.6569 15 12H17C17 14.7614 14.7614 17 12 17C9.23858 17 7 14.7614 7 12Z" fill="#3F3F46"></path>
  </symbol>
  <symbol fill="none" xmlns="http://www.w3.org/2000/svg" viewBox="0 0 16 17" id="analytics">
    <path d="M8.72855 3.16066L8.16668 3.0906V3.65682V8.28223V8.78223H8.66668H13.2921H13.8583L13.7882 8.22036C13.4591 5.58078 11.3681 3.48981 8.72855 3.16066ZM13.2719 11.4489H13.639C12.6797 13.6094 10.5152 15.1156 8.00001 15.1156C4.59425 15.1156 1.83334 12.3546 1.83334 8.94889C1.83334 6.43367 3.33948 4.26914 5.50001 3.30987V3.67706C3.52995 4.61291 2.16668 6.62115 2.16668 8.94889C2.16668 12.1706 4.77835 14.7822 8.00001 14.7822C10.3278 14.7822 12.336 13.4189 13.2719 11.4489ZM8.00001 2.78223C11.4057 2.78223 14.1667 5.54314 14.1667 8.94889C14.1667 9.00464 14.1659 9.0602 14.1645 9.11556H7.83334V2.78443C7.88871 2.78296 7.94427 2.78223 8.00001 2.78223Z" fill="#3F3F46" stroke="#334155"></path>
  </symbol>
  <symbol fill="none" xmlns="http://www.w3.org/2000/svg" viewBox="0 0 16 17" id="terms">
    <path d="M12.6667 14.7822H13.1667V14.2822V3.61556V3.11556H12.6667H3.33333H2.83333V3.61556V14.2822V14.7822H3.33333H12.6667ZM13.3333 15.1156H2.66667C2.57462 15.1156 2.5 15.0409 2.5 14.9489V2.94889C2.5 2.85685 2.57462 2.78223 2.66667 2.78223H13.3333C13.4254 2.78223 13.5 2.85684 13.5 2.94889V14.9489C13.5 15.041 13.4254 15.1156 13.3333 15.1156ZM5.16667 5.44889H6.83333V7.11556H5.16667V5.44889ZM5.16667 9.44889H10.8333V9.78223H5.16667V9.44889ZM5.16667 12.1156H10.8333V12.4489H5.16667V12.1156ZM9.16667 6.11556H10.8333V6.44889H9.16667V6.11556Z" fill="#3F3F46" stroke="#334155"></path>
  </symbol>
  <symbol fill="none" xmlns="http://www.w3.org/2000/svg" viewBox="0 0 24 24" id="ads">
    <path d="M21 13.2422V20H22V22H2V20H3V13.2422C1.79401 12.435 1 11.0602 1 9.5C1 8.67286 1.22443 7.87621 1.63322 7.19746L4.3453 2.5C4.52393 2.1906 4.85406 2 5.21132 2H18.7887C19.1459 2 19.4761 2.1906 19.6547 2.5L22.3575 7.18172C22.7756 7.87621 23 8.67286 23 9.5C23 11.0602 22.206 12.435 21 13.2422ZM19 13.9725C18.8358 13.9907 18.669 14 18.5 14C17.2409 14 16.0789 13.478 15.25 12.6132C14.4211 13.478 13.2591 14 12 14C10.7409 14 9.5789 13.478 8.75 12.6132C7.9211 13.478 6.75911 14 5.5 14C5.331 14 5.16417 13.9907 5 13.9725V20H19V13.9725ZM5.78865 4L3.35598 8.21321C3.12409 8.59843 3 9.0389 3 9.5C3 10.8807 4.11929 12 5.5 12C6.53096 12 7.44467 11.3703 7.82179 10.4295C8.1574 9.59223 9.3426 9.59223 9.67821 10.4295C10.0553 11.3703 10.969 12 12 12C13.031 12 13.9447 11.3703 14.3218 10.4295C14.6574 9.59223 15.8426 9.59223 16.1782 10.4295C16.5553 11.3703 17.469 12 18.5 12C19.8807 12 21 10.8807 21 9.5C21 9.0389 20.8759 8.59843 20.6347 8.19746L18.2113 4H5.78865Z" fill="#3F3F46"></path>
  </symbol>
  <symbol fill="none" xmlns="http://www.w3.org/2000/svg" viewBox="0 0 24 24" id="support">
    <path d="M22 17.0022C21.999 19.8731 19.9816 22.2726 17.2872 22.8616L16.6492 20.9476C17.8532 20.7511 18.8765 20.0171 19.4649 19H17C15.8954 19 15 18.1046 15 17V13C15 11.8954 15.8954 11 17 11H19.9381C19.446 7.05369 16.0796 4 12 4C7.92038 4 4.55399 7.05369 4.06189 11H7C8.10457 11 9 11.8954 9 13V17C9 18.1046 8.10457 19 7 19H4C2.89543 19 2 18.1046 2 17V12C2 6.47715 6.47715 2 12 2C17.5228 2 22 6.47715 22 12V12.9987V13V17V17.0022ZM20 17V13H17V17H20ZM4 13V17H7V13H4Z" fill="#3F3F46"></path>
  </symbol>
  <symbol fill="none" xmlns="http://www.w3.org/2000/svg" viewBox="0 0 16 17" id="user">
    <path d="M5.50416 5.46913L5.50374 5.47637L5.50353 5.48362L5.50013 5.60113L5.49993 5.60834V5.61556V7.61556C5.49993 8.9963 6.61918 10.1156 7.99993 10.1156C9.3315 10.1156 10.4197 9.07481 10.4957 7.762L10.4961 7.75478L10.4963 7.74755L10.4997 7.63002L10.4999 7.62279V7.61556V5.61556C10.4999 4.23485 9.3806 3.11556 7.99993 3.11556C6.66834 3.11556 5.58022 4.15633 5.50416 5.46913ZM7.99993 12.7822C10.0416 12.7822 11.824 13.56 12.9374 14.7243L12.6288 14.8702C11.5485 13.7857 9.85955 13.1156 7.99993 13.1156C6.14037 13.1156 4.45155 13.7857 3.37118 14.8701L3.06279 14.724C4.1762 13.5598 5.95843 12.7822 7.99993 12.7822ZM8.00504 2.78223C9.56748 2.78499 10.8333 4.05246 10.8333 5.61556V7.61556C10.8333 9.13736 9.63335 10.3791 8.12833 10.4461L7.99484 10.4489C6.43237 10.4461 5.16659 9.17866 5.16659 7.61556V5.61556C5.16659 4.09379 6.36651 2.852 7.87153 2.78507L8.00504 2.78223Z" fill="#3F3F46" stroke="#334155"></path>
  </symbol>
  <symbol fill="none" xmlns="http://www.w3.org/2000/svg" viewBox="0 0 24 24" id="logout">
    <path d="M12 22C6.47715 22 2 17.5228 2 12C2 6.47715 6.47715 2 12 2C15.2713 2 18.1757 3.57078 20.0002 5.99923L17.2909 5.99931C15.8807 4.75499 14.0285 4 12 4C7.58172 4 4 7.58172 4 12C4 16.4183 7.58172 20 12 20C14.029 20 15.8816 19.2446 17.2919 17.9998H20.0009C18.1765 20.4288 15.2717 22 12 22ZM19 16V13H11V11H19V8L24 12L19 16Z" fill="#3F3F46"></path>
  </symbol>
  <symbol fill="none" xmlns="http://www.w3.org/2000/svg" viewBox="0 0 24 24" id="settings">
    <path d="M12 1L21.5 6.5V17.5L12 23L2.5 17.5V6.5L12 1ZM12 3.311L4.5 7.65311V16.3469L12 20.689L19.5 16.3469V7.65311L12 3.311ZM12 16C9.79086 16 8 14.2091 8 12C8 9.79086 9.79086 8 12 8C14.2091 8 16 9.79086 16 12C16 14.2091 14.2091 16 12 16ZM12 14C13.1046 14 14 13.1046 14 12C14 10.8954 13.1046 10 12 10C10.8954 10 10 10.8954 10 12C10 13.1046 10.8954 14 12 14Z" fill="#3F3F46"></path>
  </symbol>
  <symbol fill="none" xmlns="http://www.w3.org/2000/svg" viewBox="0 0 24 24" id="global-line">
    <path d="M12 22C6.47715 22 2 17.5228 2 12C2 6.47715 6.47715 2 12 2C17.5228 2 22 6.47715 22 12C22 17.5228 17.5228 22 12 22ZM9.71002 19.6674C8.74743 17.6259 8.15732 15.3742 8.02731 13H4.06189C4.458 16.1765 6.71639 18.7747 9.71002 19.6674ZM10.0307 13C10.1811 15.4388 10.8778 17.7297 12 19.752C13.1222 17.7297 13.8189 15.4388 13.9693 13H10.0307ZM19.9381 13H15.9727C15.8427 15.3742 15.2526 17.6259 14.29 19.6674C17.2836 18.7747 19.542 16.1765 19.9381 13ZM4.06189 11H8.02731C8.15732 8.62577 8.74743 6.37407 9.71002 4.33256C6.71639 5.22533 4.458 7.8235 4.06189 11ZM10.0307 11H13.9693C13.8189 8.56122 13.1222 6.27025 12 4.24799C10.8778 6.27025 10.1811 8.56122 10.0307 11ZM14.29 4.33256C15.2526 6.37407 15.8427 8.62577 15.9727 11H19.9381C19.542 7.8235 17.2836 5.22533 14.29 4.33256Z" fill="#3F3F46"></path>
  </symbol>
  <symbol fill="none" xmlns="http://www.w3.org/2000/svg" viewBox="0 0 24 24" id="arrow-down">
    <path d="M11.9999 13.1714L16.9497 8.22168L18.3639 9.63589L11.9999 15.9999L5.63599 9.63589L7.0502 8.22168L11.9999 13.1714Z" fill="#3F3F46"></path>
  </symbol>
  <symbol fill="none" xmlns="http://www.w3.org/2000/svg" viewBox="0 0 24 24" id="arrow-left-line">
    <path d="M10.8284 12.0007L15.7782 16.9504L14.364 18.3646L8 12.0007L14.364 5.63672L15.7782 7.05093L10.8284 12.0007Z" fill="currentColor"></path>
  </symbol>
  <symbol fill="none" xmlns="http://www.w3.org/2000/svg" viewBox="0 0 24 24" id="notification-line">
    <path d="M5 18H19V11.0314C19 7.14806 15.866 4 12 4C8.13401 4 5 7.14806 5 11.0314V18ZM12 2C16.9706 2 21 6.04348 21 11.0314V20H3V11.0314C3 6.04348 7.02944 2 12 2ZM9.5 21H14.5C14.5 22.3807 13.3807 23.5 12 23.5C10.6193 23.5 9.5 22.3807 9.5 21Z" fill="#3F3F46"></path>
  </symbol>
</svg>
